# xmcd
#
# Track frame offsets:
#	150
#	14159
#	26237
#	36716
#	51119
#	63160
#	75042
#	91403
#	104088
#	115709
#	129284
#
# Disc length: 1903 seconds
#
# Revision: 1
# Processed by: cddbd v1.5.2PL0 Copyright (c) Steve Scherf et al.
# Submitted via: audiograbber 1.83.01
#
DISCID=8e076d0b
DTITLE=Hall and Oats - Greatest Hits
DYEAR=1900
DGENRE=Blues
TTITLE0=Past Time Behind
TTITLE1=Deep River Blues
TTITLE2=In Honor Of A Lady
TTITLE3=A Lot Of Changes Comin'
TTITLE4=The Provider
TTITLE5=Angelina
TTITLE6=They Needed Each Other
TTITLE7=If That's What Makes You Happy
TTITLE8=Perkiomen
TTITLE9=The Reason Why
TTITLE10=I'll Be By
EXTD=
EXTT0=
EXTT1=
EXTT2=
EXTT3=
EXTT4=
EXTT5=
EXTT6=
EXTT7=
EXTT8=
EXTT9=
EXTT10=
PLAYORDER=
